<mxfile host="65bd71144e">
    <diagram id="dxz3Dpgd_S9EO_WHkqeO" name="Page-1">
        <mxGraphModel dx="2619" dy="1277" grid="1" gridSize="10" guides="1" tooltips="1" connect="1" arrows="1" fold="1" page="1" pageScale="1" pageWidth="850" pageHeight="1100" math="0" shadow="0">
            <root>
                <mxCell id="0"/>
                <mxCell id="1" parent="0"/>
                <mxCell id="15" value="" style="edgeStyle=none;html=1;" parent="1" edge="1">
                    <mxGeometry relative="1" as="geometry">
                        <mxPoint x="350" y="770" as="sourcePoint"/>
                    </mxGeometry>
                </mxCell>
                <mxCell id="172" value="" style="group" vertex="1" connectable="0" parent="1">
                    <mxGeometry x="-810" y="10" width="995" height="1230" as="geometry"/>
                </mxCell>
                <mxCell id="5" value="Konfigurasikan media pembelajaran" style="rounded=1;whiteSpace=wrap;html=1;strokeWidth=3;fontStyle=1" parent="172" vertex="1">
                    <mxGeometry y="140" width="120" height="60" as="geometry"/>
                </mxCell>
                <mxCell id="8" value="Jalankan kode program" style="rounded=1;whiteSpace=wrap;html=1;strokeWidth=3;fontStyle=1" parent="172" vertex="1">
                    <mxGeometry y="230" width="120" height="60" as="geometry"/>
                </mxCell>
                <mxCell id="9" value="" style="edgeStyle=none;html=1;strokeWidth=3;" parent="172" source="5" target="8" edge="1">
                    <mxGeometry relative="1" as="geometry"/>
                </mxCell>
                <mxCell id="10" value="Pilih port Arduino yang tersedia" style="rounded=1;whiteSpace=wrap;html=1;strokeWidth=3;fontStyle=1" parent="172" vertex="1">
                    <mxGeometry y="320" width="120" height="60" as="geometry"/>
                </mxCell>
                <mxCell id="11" value="" style="edgeStyle=none;html=1;strokeWidth=3;" parent="172" source="8" target="10" edge="1">
                    <mxGeometry relative="1" as="geometry"/>
                </mxCell>
                <mxCell id="16" value="Mulai" style="ellipse;whiteSpace=wrap;html=1;strokeWidth=3;fontStyle=1" parent="172" vertex="1">
                    <mxGeometry y="30" width="120" height="80" as="geometry"/>
                </mxCell>
                <mxCell id="7" value="" style="edgeStyle=none;html=1;exitX=0.5;exitY=1;exitDx=0;exitDy=0;strokeWidth=3;" parent="172" source="16" target="5" edge="1">
                    <mxGeometry relative="1" as="geometry">
                        <mxPoint x="60" y="120" as="sourcePoint"/>
                    </mxGeometry>
                </mxCell>
                <mxCell id="17" value="Port tersedia?" style="rhombus;whiteSpace=wrap;html=1;rounded=1;strokeWidth=3;fontStyle=1" parent="172" vertex="1">
                    <mxGeometry x="10" y="410" width="100" height="100" as="geometry"/>
                </mxCell>
                <mxCell id="18" value="" style="edgeStyle=none;html=1;strokeWidth=3;" parent="172" source="10" target="17" edge="1">
                    <mxGeometry relative="1" as="geometry"/>
                </mxCell>
                <mxCell id="20" value="" style="endArrow=classic;html=1;exitX=1;exitY=0.5;exitDx=0;exitDy=0;entryX=1;entryY=0.5;entryDx=0;entryDy=0;strokeWidth=3;" parent="172" source="17" target="5" edge="1">
                    <mxGeometry relative="1" as="geometry">
                        <mxPoint x="80" y="510" as="sourcePoint"/>
                        <mxPoint x="180" y="510" as="targetPoint"/>
                        <Array as="points">
                            <mxPoint x="230" y="460"/>
                            <mxPoint x="230" y="170"/>
                        </Array>
                    </mxGeometry>
                </mxCell>
                <mxCell id="21" value="Tidak" style="edgeLabel;resizable=0;html=1;align=center;verticalAlign=middle;" parent="20" connectable="0" vertex="1">
                    <mxGeometry relative="1" as="geometry"/>
                </mxCell>
                <mxCell id="22" value="Kalibrasi Arduino secara manual" style="whiteSpace=wrap;html=1;rounded=1;glass=0;strokeWidth=3;fontStyle=1" parent="172" vertex="1">
                    <mxGeometry y="550" width="120" height="60" as="geometry"/>
                </mxCell>
                <mxCell id="26" value="Pilih nomor indeks kamera yang tersedia" style="whiteSpace=wrap;html=1;rounded=1;strokeWidth=3;fontStyle=1" parent="172" vertex="1">
                    <mxGeometry y="750" width="120" height="60" as="geometry"/>
                </mxCell>
                <mxCell id="28" value="Nomor indeks sesuai" style="rhombus;whiteSpace=wrap;html=1;rounded=1;strokeWidth=3;fontStyle=1" parent="172" vertex="1">
                    <mxGeometry x="5" y="850" width="110" height="100" as="geometry"/>
                </mxCell>
                <mxCell id="29" value="" style="edgeStyle=none;html=1;strokeWidth=3;" parent="172" source="26" target="28" edge="1">
                    <mxGeometry relative="1" as="geometry"/>
                </mxCell>
                <mxCell id="30" value="" style="endArrow=classic;html=1;exitX=1;exitY=0.5;exitDx=0;exitDy=0;entryX=1;entryY=0.5;entryDx=0;entryDy=0;strokeWidth=3;" parent="172" source="28" target="5" edge="1">
                    <mxGeometry relative="1" as="geometry">
                        <mxPoint x="280" y="590" as="sourcePoint"/>
                        <mxPoint x="230" y="170" as="targetPoint"/>
                        <Array as="points">
                            <mxPoint x="280" y="900"/>
                            <mxPoint x="280" y="170"/>
                        </Array>
                    </mxGeometry>
                </mxCell>
                <mxCell id="31" value="Tidak" style="edgeLabel;resizable=0;html=1;align=center;verticalAlign=middle;" parent="30" connectable="0" vertex="1">
                    <mxGeometry relative="1" as="geometry"/>
                </mxCell>
                <mxCell id="35" value="" style="endArrow=classic;html=1;entryX=0.5;entryY=0;entryDx=0;entryDy=0;strokeWidth=3;" parent="172" target="22" edge="1">
                    <mxGeometry relative="1" as="geometry">
                        <mxPoint x="60" y="510" as="sourcePoint"/>
                        <mxPoint x="180" y="590" as="targetPoint"/>
                    </mxGeometry>
                </mxCell>
                <mxCell id="36" value="Ya" style="edgeLabel;resizable=0;html=1;align=center;verticalAlign=middle;" parent="35" connectable="0" vertex="1">
                    <mxGeometry relative="1" as="geometry"/>
                </mxCell>
                <mxCell id="40" value="Putuskan koneksi dengan Arduino" style="rounded=1;whiteSpace=wrap;html=1;strokeWidth=3;fontStyle=1" parent="172" vertex="1">
                    <mxGeometry y="650" width="120" height="60" as="geometry"/>
                </mxCell>
                <mxCell id="41" value="" style="endArrow=classic;html=1;exitX=0.5;exitY=1;exitDx=0;exitDy=0;entryX=0.5;entryY=0;entryDx=0;entryDy=0;strokeWidth=3;" parent="172" source="22" target="40" edge="1">
                    <mxGeometry width="50" height="50" relative="1" as="geometry">
                        <mxPoint x="110" y="810" as="sourcePoint"/>
                        <mxPoint x="160" y="760" as="targetPoint"/>
                    </mxGeometry>
                </mxCell>
                <mxCell id="42" value="" style="endArrow=classic;html=1;exitX=0.5;exitY=1;exitDx=0;exitDy=0;entryX=0.5;entryY=0;entryDx=0;entryDy=0;strokeWidth=3;" parent="172" source="40" target="26" edge="1">
                    <mxGeometry width="50" height="50" relative="1" as="geometry">
                        <mxPoint x="70" y="620" as="sourcePoint"/>
                        <mxPoint x="70" y="670" as="targetPoint"/>
                    </mxGeometry>
                </mxCell>
                <mxCell id="106" value="" style="ellipse;whiteSpace=wrap;html=1;aspect=fixed;labelBorderColor=none;strokeWidth=3;" parent="172" vertex="1">
                    <mxGeometry x="45" y="980" width="30" height="30" as="geometry"/>
                </mxCell>
                <mxCell id="44" value="" style="edgeStyle=none;html=1;entryX=0.5;entryY=0;entryDx=0;entryDy=0;strokeWidth=3;" parent="172" source="28" target="106" edge="1">
                    <mxGeometry relative="1" as="geometry">
                        <mxPoint x="60" y="980" as="targetPoint"/>
                    </mxGeometry>
                </mxCell>
                <mxCell id="110" value="Pilih warna deteksi?" style="rhombus;whiteSpace=wrap;html=1;rounded=1;strokeWidth=3;fontStyle=1" parent="172" vertex="1">
                    <mxGeometry x="735" y="60" width="100" height="90" as="geometry"/>
                </mxCell>
                <mxCell id="111" value="Hijau" style="whiteSpace=wrap;html=1;rounded=1;strokeWidth=3;fontStyle=1" parent="172" vertex="1">
                    <mxGeometry x="725" y="200" width="120" height="60" as="geometry"/>
                </mxCell>
                <mxCell id="109" value="" style="edgeStyle=none;html=1;strokeWidth=3;" parent="172" source="110" target="111" edge="1">
                    <mxGeometry relative="1" as="geometry"/>
                </mxCell>
                <mxCell id="112" value="Merah" style="whiteSpace=wrap;html=1;rounded=1;strokeWidth=3;fontStyle=1" parent="172" vertex="1">
                    <mxGeometry x="575" y="200" width="120" height="60" as="geometry"/>
                </mxCell>
                <mxCell id="113" value="BItu" style="whiteSpace=wrap;html=1;rounded=1;strokeWidth=3;fontStyle=1" parent="172" vertex="1">
                    <mxGeometry x="875" y="200" width="120" height="60" as="geometry"/>
                </mxCell>
                <mxCell id="114" value="" style="endArrow=classic;html=1;entryX=0.5;entryY=0;entryDx=0;entryDy=0;exitX=0;exitY=0.5;exitDx=0;exitDy=0;strokeWidth=3;" parent="172" source="110" target="112" edge="1">
                    <mxGeometry width="50" height="50" relative="1" as="geometry">
                        <mxPoint x="835" y="170" as="sourcePoint"/>
                        <mxPoint x="885" y="120" as="targetPoint"/>
                        <Array as="points">
                            <mxPoint x="635" y="105"/>
                        </Array>
                    </mxGeometry>
                </mxCell>
                <mxCell id="115" value="" style="endArrow=classic;html=1;exitX=1;exitY=0.5;exitDx=0;exitDy=0;entryX=0.5;entryY=0;entryDx=0;entryDy=0;strokeWidth=3;" parent="172" source="110" target="113" edge="1">
                    <mxGeometry width="50" height="50" relative="1" as="geometry">
                        <mxPoint x="835" y="170" as="sourcePoint"/>
                        <mxPoint x="885" y="120" as="targetPoint"/>
                        <Array as="points">
                            <mxPoint x="935" y="105"/>
                        </Array>
                    </mxGeometry>
                </mxCell>
                <mxCell id="116" value="Warna deteksi pilihan" style="whiteSpace=wrap;html=1;rounded=1;strokeWidth=3;fontStyle=1" parent="172" vertex="1">
                    <mxGeometry x="725" y="300" width="120" height="60" as="geometry"/>
                </mxCell>
                <mxCell id="117" value="" style="endArrow=classic;html=1;exitX=0.5;exitY=1;exitDx=0;exitDy=0;entryX=0;entryY=0.5;entryDx=0;entryDy=0;strokeWidth=3;" parent="172" source="112" target="116" edge="1">
                    <mxGeometry width="50" height="50" relative="1" as="geometry">
                        <mxPoint x="865" y="410" as="sourcePoint"/>
                        <mxPoint x="915" y="360" as="targetPoint"/>
                        <Array as="points">
                            <mxPoint x="635" y="330"/>
                        </Array>
                    </mxGeometry>
                </mxCell>
                <mxCell id="118" value="" style="endArrow=classic;html=1;exitX=0.5;exitY=1;exitDx=0;exitDy=0;entryX=0.5;entryY=0;entryDx=0;entryDy=0;strokeWidth=3;" parent="172" source="111" target="116" edge="1">
                    <mxGeometry width="50" height="50" relative="1" as="geometry">
                        <mxPoint x="865" y="410" as="sourcePoint"/>
                        <mxPoint x="915" y="360" as="targetPoint"/>
                    </mxGeometry>
                </mxCell>
                <mxCell id="119" value="" style="endArrow=classic;html=1;exitX=0.5;exitY=1;exitDx=0;exitDy=0;entryX=1;entryY=0.5;entryDx=0;entryDy=0;strokeWidth=3;" parent="172" source="113" target="116" edge="1">
                    <mxGeometry width="50" height="50" relative="1" as="geometry">
                        <mxPoint x="865" y="410" as="sourcePoint"/>
                        <mxPoint x="915" y="360" as="targetPoint"/>
                        <Array as="points">
                            <mxPoint x="935" y="330"/>
                        </Array>
                    </mxGeometry>
                </mxCell>
                <mxCell id="120" value="Pemberian warna uji" style="whiteSpace=wrap;html=1;rounded=1;strokeWidth=3;fontStyle=1" parent="172" vertex="1">
                    <mxGeometry x="725" y="390" width="120" height="60" as="geometry"/>
                </mxCell>
                <mxCell id="121" value="" style="endArrow=classic;html=1;exitX=0.5;exitY=1;exitDx=0;exitDy=0;entryX=0.5;entryY=0;entryDx=0;entryDy=0;strokeWidth=3;" parent="172" source="116" target="120" edge="1">
                    <mxGeometry width="50" height="50" relative="1" as="geometry">
                        <mxPoint x="865" y="420" as="sourcePoint"/>
                        <mxPoint x="915" y="370" as="targetPoint"/>
                    </mxGeometry>
                </mxCell>
                <mxCell id="122" value="" style="endArrow=classic;html=1;exitX=0.5;exitY=1;exitDx=0;exitDy=0;entryX=0.5;entryY=0;entryDx=0;entryDy=0;strokeWidth=3;" parent="172" source="120" target="127" edge="1">
                    <mxGeometry width="50" height="50" relative="1" as="geometry">
                        <mxPoint x="795" y="370" as="sourcePoint"/>
                        <mxPoint x="805" y="460" as="targetPoint"/>
                    </mxGeometry>
                </mxCell>
                <mxCell id="123" value="Sesuaikan batas atas dan bawah HSV" style="whiteSpace=wrap;html=1;strokeWidth=3;rounded=1;fontStyle=1" parent="172" vertex="1">
                    <mxGeometry x="725" y="640" width="120" height="60" as="geometry"/>
                </mxCell>
                <mxCell id="124" value="" style="endArrow=classic;html=1;exitX=0.5;exitY=1;exitDx=0;exitDy=0;entryX=0.5;entryY=0;entryDx=0;entryDy=0;strokeWidth=3;" parent="172" source="127" target="123" edge="1">
                    <mxGeometry relative="1" as="geometry">
                        <mxPoint x="835" y="530" as="sourcePoint"/>
                        <mxPoint x="775" y="680" as="targetPoint"/>
                    </mxGeometry>
                </mxCell>
                <mxCell id="125" value="Tidak" style="edgeLabel;resizable=0;html=1;align=center;verticalAlign=middle;" parent="124" connectable="0" vertex="1">
                    <mxGeometry relative="1" as="geometry"/>
                </mxCell>
                <mxCell id="127" value="Warna terdeteksi?" style="rhombus;labelBorderColor=none;whiteSpace=wrap;html=1;verticalAlign=middle;horizontal=1;spacing=8;strokeWidth=3;rounded=1;fontStyle=1" parent="172" vertex="1">
                    <mxGeometry x="730" y="475" width="110" height="110" as="geometry"/>
                </mxCell>
                <mxCell id="131" value="" style="endArrow=classic;html=1;exitX=0;exitY=0.5;exitDx=0;exitDy=0;entryX=0.5;entryY=0;entryDx=0;entryDy=0;strokeWidth=3;" parent="172" source="127" edge="1">
                    <mxGeometry relative="1" as="geometry">
                        <mxPoint x="735" y="660" as="sourcePoint"/>
                        <mxPoint x="585" y="560" as="targetPoint"/>
                        <Array as="points">
                            <mxPoint x="585" y="530"/>
                        </Array>
                    </mxGeometry>
                </mxCell>
                <mxCell id="133" value="" style="endArrow=classic;html=1;exitX=1;exitY=0.5;exitDx=0;exitDy=0;entryX=1;entryY=0.5;entryDx=0;entryDy=0;strokeWidth=3;" parent="172" source="123" target="127" edge="1">
                    <mxGeometry width="50" height="50" relative="1" as="geometry">
                        <mxPoint x="765" y="630" as="sourcePoint"/>
                        <mxPoint x="815" y="580" as="targetPoint"/>
                        <Array as="points">
                            <mxPoint x="885" y="670"/>
                            <mxPoint x="885" y="530"/>
                        </Array>
                    </mxGeometry>
                </mxCell>
                <mxCell id="148" value="" style="ellipse;whiteSpace=wrap;html=1;aspect=fixed;labelBorderColor=none;strokeWidth=3;" parent="172" vertex="1">
                    <mxGeometry x="770" width="30" height="30" as="geometry"/>
                </mxCell>
                <mxCell id="149" value="" style="endArrow=classic;html=1;exitX=0.5;exitY=1;exitDx=0;exitDy=0;strokeWidth=3;" parent="172" source="148" target="110" edge="1">
                    <mxGeometry width="50" height="50" relative="1" as="geometry">
                        <mxPoint x="720" y="100" as="sourcePoint"/>
                        <mxPoint x="770" y="50" as="targetPoint"/>
                    </mxGeometry>
                </mxCell>
                <mxCell id="150" value="Tersisa 1 lingkaran kontur deteksi?" style="rhombus;labelBorderColor=none;whiteSpace=wrap;html=1;verticalAlign=middle;horizontal=1;spacing=8;strokeWidth=3;rounded=1;fontStyle=1" vertex="1" parent="172">
                    <mxGeometry x="530" y="560" width="110" height="110" as="geometry"/>
                </mxCell>
                <mxCell id="151" value="Pilih port Arduino" style="rounded=1;whiteSpace=wrap;html=1;labelBorderColor=none;strokeWidth=3;fontStyle=1" vertex="1" parent="172">
                    <mxGeometry x="385" y="700" width="120" height="60" as="geometry"/>
                </mxCell>
                <mxCell id="152" value="" style="endArrow=classic;html=1;exitX=0;exitY=0.5;exitDx=0;exitDy=0;strokeWidth=3;" edge="1" parent="172" source="150" target="151">
                    <mxGeometry relative="1" as="geometry">
                        <mxPoint x="755" y="670" as="sourcePoint"/>
                        <mxPoint x="855" y="670" as="targetPoint"/>
                        <Array as="points">
                            <mxPoint x="445" y="615"/>
                        </Array>
                    </mxGeometry>
                </mxCell>
                <mxCell id="153" value="Ya" style="edgeLabel;resizable=0;html=1;align=center;verticalAlign=middle;labelBorderColor=none;" connectable="0" vertex="1" parent="152">
                    <mxGeometry relative="1" as="geometry"/>
                </mxCell>
                <mxCell id="154" value="Ya" style="edgeLabel;resizable=0;html=1;align=center;verticalAlign=middle;labelBorderColor=none;" connectable="0" vertex="1" parent="172">
                    <mxGeometry x="660.5" y="530" as="geometry"/>
                </mxCell>
                <mxCell id="155" value="Sesuaikan nilai minimal area kontur" style="whiteSpace=wrap;html=1;strokeWidth=3;rounded=1;fontStyle=1" vertex="1" parent="172">
                    <mxGeometry x="525" y="700" width="120" height="60" as="geometry"/>
                </mxCell>
                <mxCell id="156" value="" style="endArrow=classic;html=1;exitX=1;exitY=0.5;exitDx=0;exitDy=0;entryX=1;entryY=0.5;entryDx=0;entryDy=0;strokeWidth=3;" edge="1" parent="172" source="155" target="150">
                    <mxGeometry width="50" height="50" relative="1" as="geometry">
                        <mxPoint x="705" y="730" as="sourcePoint"/>
                        <mxPoint x="755" y="680" as="targetPoint"/>
                        <Array as="points">
                            <mxPoint x="675" y="730"/>
                            <mxPoint x="675" y="615"/>
                        </Array>
                    </mxGeometry>
                </mxCell>
                <mxCell id="157" value="" style="endArrow=classic;html=1;exitX=0.5;exitY=1;exitDx=0;exitDy=0;entryX=0.5;entryY=0;entryDx=0;entryDy=0;strokeWidth=3;" edge="1" parent="172" source="150" target="155">
                    <mxGeometry relative="1" as="geometry">
                        <mxPoint x="685" y="710" as="sourcePoint"/>
                        <mxPoint x="785" y="710" as="targetPoint"/>
                    </mxGeometry>
                </mxCell>
                <mxCell id="158" value="Tidak" style="edgeLabel;resizable=0;html=1;align=center;verticalAlign=middle;labelBorderColor=none;" connectable="0" vertex="1" parent="157">
                    <mxGeometry relative="1" as="geometry"/>
                </mxCell>
                <mxCell id="159" value="Memulai proses &lt;i&gt;tracking&lt;/i&gt;" style="rounded=1;whiteSpace=wrap;html=1;labelBorderColor=none;strokeWidth=3;fontStyle=1" vertex="1" parent="172">
                    <mxGeometry x="385" y="790" width="120" height="60" as="geometry"/>
                </mxCell>
                <mxCell id="160" value="" style="endArrow=classic;html=1;exitX=0.5;exitY=1;exitDx=0;exitDy=0;entryX=0.5;entryY=0;entryDx=0;entryDy=0;strokeWidth=3;" edge="1" parent="172" source="151" target="159">
                    <mxGeometry width="50" height="50" relative="1" as="geometry">
                        <mxPoint x="575" y="880" as="sourcePoint"/>
                        <mxPoint x="625" y="830" as="targetPoint"/>
                    </mxGeometry>
                </mxCell>
                <mxCell id="161" value="Gerakkan warna deteksi" style="rounded=1;whiteSpace=wrap;html=1;labelBorderColor=none;strokeWidth=3;fontStyle=1" vertex="1" parent="172">
                    <mxGeometry x="385" y="880" width="120" height="60" as="geometry"/>
                </mxCell>
                <mxCell id="162" value="" style="endArrow=classic;html=1;exitX=0.5;exitY=1;exitDx=0;exitDy=0;entryX=0.5;entryY=0;entryDx=0;entryDy=0;strokeWidth=3;" edge="1" parent="172" source="159" target="161">
                    <mxGeometry width="50" height="50" relative="1" as="geometry">
                        <mxPoint x="584.5699999999999" y="850" as="sourcePoint"/>
                        <mxPoint x="584.5699999999999" y="890" as="targetPoint"/>
                    </mxGeometry>
                </mxCell>
                <mxCell id="163" value="Menghentikan proses &lt;i&gt;tracking&lt;/i&gt;" style="rounded=1;whiteSpace=wrap;html=1;labelBorderColor=none;strokeWidth=3;fontStyle=1" vertex="1" parent="172">
                    <mxGeometry x="385" y="970" width="120" height="60" as="geometry"/>
                </mxCell>
                <mxCell id="164" value="" style="endArrow=classic;html=1;entryX=0.5;entryY=0;entryDx=0;entryDy=0;exitX=0.5;exitY=1;exitDx=0;exitDy=0;strokeWidth=3;" edge="1" parent="172" source="161" target="163">
                    <mxGeometry width="50" height="50" relative="1" as="geometry">
                        <mxPoint x="445" y="950" as="sourcePoint"/>
                        <mxPoint x="565" y="980" as="targetPoint"/>
                    </mxGeometry>
                </mxCell>
                <mxCell id="165" value="Putuskan koneksi ke Arduino" style="rounded=1;whiteSpace=wrap;html=1;labelBorderColor=none;strokeWidth=3;fontStyle=1" vertex="1" parent="172">
                    <mxGeometry x="385" y="1060" width="120" height="60" as="geometry"/>
                </mxCell>
                <mxCell id="166" value="" style="endArrow=classic;html=1;entryX=0.5;entryY=0;entryDx=0;entryDy=0;exitX=0.5;exitY=1;exitDx=0;exitDy=0;strokeWidth=3;" edge="1" parent="172" source="163" target="165">
                    <mxGeometry width="50" height="50" relative="1" as="geometry">
                        <mxPoint x="545" y="1050" as="sourcePoint"/>
                        <mxPoint x="545" y="1080" as="targetPoint"/>
                    </mxGeometry>
                </mxCell>
                <mxCell id="167" value="Selesai" style="ellipse;whiteSpace=wrap;html=1;labelBorderColor=none;strokeWidth=3;fontStyle=1" vertex="1" parent="172">
                    <mxGeometry x="385" y="1150" width="120" height="80" as="geometry"/>
                </mxCell>
                <mxCell id="168" value="" style="endArrow=classic;html=1;exitX=0.5;exitY=1;exitDx=0;exitDy=0;entryX=0.5;entryY=0;entryDx=0;entryDy=0;strokeWidth=3;" edge="1" parent="172" source="165" target="167">
                    <mxGeometry width="50" height="50" relative="1" as="geometry">
                        <mxPoint x="435" y="1230" as="sourcePoint"/>
                        <mxPoint x="485" y="1180" as="targetPoint"/>
                    </mxGeometry>
                </mxCell>
            </root>
        </mxGraphModel>
    </diagram>
</mxfile>